PathFileType	4	(X/Y/Z)	D:\TRACE\v60_Jaco2_6-2-23\BothDRS_Motion1_2-v60.trc
DataRate	CameraRate	NumFrames	NumMarkers	Units	OrigDataRate	OrigDataStartFrame	OrigNumFrames
100.00	100.00	      38	9	mm	100.00	1743	      6970
Frame#	Time	front left toe			Front right toe			aft left toe			aft right toe			Arm			FL body			FR body			AL Body			AR Body			
		X1	Y1	Z1	X2	Y2	Z2	X3	Y3	Z3	X4	Y4	Z4	X5	Y5	Z5	X6	Y6	Z6	X7	Y7	Z7	X8	Y8	Z8	X9	Y9	Z9	

1743	17.420	-227.53293	21.40821	-252.47160	146.68190	21.48069	-293.96750	-167.47011	9.20821	368.31586	209.24461	13.24737	330.75546	-54.33194	1232.34253	-566.06567	-137.10770	588.54309	-395.92099	22.28016	587.19257	-414.01990	-33.25640	550.03955	543.23047	121.52149	542.66290	526.52063	
1744	17.430	-226.12029	25.43494	-252.69337	146.46861	20.85875	-293.53125	-167.79477	7.59685	368.51675	207.69487	15.88961	330.96597	-55.56943	1232.62781	-566.88647	-137.88458	590.04907	-395.76208	21.59212	588.63165	-413.98965	-33.45961	550.27814	543.23486	121.43522	542.78528	526.31720	
1745	17.440	-223.15614	28.58492	-249.36229	146.09671	21.22220	-294.35840	-168.52979	8.40477	367.30823	205.22932	18.40124	335.33350	-56.99699	1232.54260	-567.21960	-138.73399	590.93842	-396.09543	20.63523	589.83929	-414.33664	-33.93145	549.99268	543.21588	121.21675	542.62701	526.06744	
1746	17.450	-219.78157	35.28466	-246.30566	146.03516	20.49766	-294.56464	-168.63046	8.48865	367.31564	199.92691	26.69602	336.64240	-58.77475	1232.95374	-566.94470	-139.25198	591.16016	-396.26923	20.12774	590.28320	-414.58109	-34.32271	550.10333	542.82770	120.94664	542.97198	525.64825	
1747	17.460	-219.67461	44.76097	-246.80846	146.11577	19.95922	-294.84698	-168.38905	8.68994	367.54086	197.17741	35.16805	336.64142	-60.53590	1233.99731	-566.50598	-139.61909	590.71753	-396.65521	19.87685	590.03851	-414.82672	-34.96886	550.81067	542.31830	119.66900	543.39001	524.93066	
1748	17.470	-220.10402	55.88372	-246.82880	146.36528	19.71975	-294.92120	-168.48860	8.76478	367.47537	195.17621	46.95259	335.89642	-62.14462	1235.40198	-565.95087	-139.91728	590.08179	-396.98407	19.41817	589.43085	-415.16287	-35.02689	551.16620	542.58118	119.39977	543.82867	525.01434	
1749	17.480	-222.40811	67.21317	-248.26537	146.29674	19.70678	-294.45093	-168.59203	8.85434	367.50815	196.43936	59.02311	334.81372	-63.58648	1236.35583	-565.38971	-140.07491	589.41980	-397.42911	19.28013	588.80042	-415.26346	-36.38791	551.30707	541.98718	118.76668	544.09485	524.81830	
1750	17.490	-224.60039	79.16938	-249.33336	146.37479	19.61840	-294.68375	-168.85799	8.71696	367.28018	197.22650	70.76588	333.99435	-64.41818	1236.36743	-565.10547	-140.61867	588.89539	-397.78622	19.06235	588.33984	-415.51974	-37.22581	551.18304	541.79791	117.62712	544.04266	524.81512	
1751	17.500	-226.64265	90.81606	-250.27028	146.37401	19.14312	-294.76291	-168.98338	8.60535	367.13461	200.34081	83.58511	333.47058	-64.97176	1235.48010	-565.67303	-140.18806	588.21600	-397.77063	18.80636	587.85956	-415.70239	-38.37388	550.68988	541.41577	117.29209	544.02704	525.73419	
1752	17.510	-228.41910	102.26580	-251.13211	146.41489	18.90044	-294.73022	-168.99123	8.62176	367.14459	200.82295	94.82562	333.09961	-65.39340	1234.25964	-566.71484	-140.88499	587.49963	-398.10333	18.30981	587.37238	-415.46490	-39.52964	550.45300	541.53064	115.85041	543.28516	524.60071	
1753	17.520	-229.88557	113.59988	-251.98775	146.50009	18.68419	-294.75955	-168.90991	8.75920	367.14194	199.91954	105.32775	332.63849	-65.02754	1232.50317	-567.96429	-141.22092	587.16333	-398.12198	17.86014	586.79846	-415.20078	-40.08932	550.28717	541.52496	114.83453	543.35095	524.67639	
1754	17.530	-230.84924	124.19817	-252.76196	146.76257	18.49591	-294.77200	-168.68529	8.90372	367.02106	198.33224	115.27395	332.09589	-65.27831	1230.71936	-569.64789	-141.37163	586.67224	-398.26486	17.84923	586.40381	-415.46848	-40.74646	550.36426	541.57782	114.02496	543.52246	524.59204	
1755	17.540	-231.77739	133.59811	-253.25780	147.17892	18.48343	-294.78030	-168.56529	9.27568	366.78561	196.35898	124.50999	331.57391	-65.25568	1228.74365	-571.12805	-141.92177	585.87549	-398.27661	17.18826	585.84253	-415.54623	-41.42712	550.68835	541.68042	113.49876	544.09479	525.00421	
1756	17.550	-233.60075	141.45638	-253.59668	147.57925	18.33068	-294.80981	-168.55772	9.54321	366.71359	194.46713	132.76595	331.16159	-65.90939	1226.97961	-572.86749	-141.94818	584.92108	-398.45737	16.75984	584.67236	-415.70563	-41.94733	551.10077	541.60242	112.65266	544.62134	525.07117	
1757	17.560	-235.27493	147.38707	-253.40439	147.97479	17.87567	-294.88596	-168.30847	9.65062	366.74472	193.37886	139.73604	330.86737	-66.40693	1225.49084	-574.08508	-142.18715	583.78351	-398.55011	16.89429	583.96503	-415.58801	-43.06889	551.74121	541.46228	111.66978	545.34656	525.13135	
1758	17.570	-237.50996	150.61685	-253.20544	148.15114	17.50522	-294.90271	-167.97362	9.73234	366.71277	193.06398	144.06624	330.59735	-67.10194	1224.55884	-575.31903	-142.04668	582.90283	-398.79221	17.19308	583.10309	-416.26227	-43.91130	552.39423	541.43640	110.24930	546.03320	525.25684	
1759	17.580	-239.32166	151.59258	-252.54497	148.33862	17.42135	-294.95010	-167.77458	10.14329	366.70377	193.51514	145.56641	331.03693	-67.77824	1223.68359	-576.33289	-142.13405	582.21942	-398.91708	17.45456	582.24335	-415.93991	-44.51159	553.24573	540.98383	109.89574	546.91132	525.35016	
1760	17.590	-241.21597	149.40970	-251.94975	148.53163	17.35948	-294.94141	-167.47862	10.42139	366.56186	193.43431	143.88789	331.68835	-67.86012	1223.00940	-577.38745	-141.98280	581.62329	-399.30972	17.39834	581.87231	-416.27618	-45.62477	554.04370	541.39966	109.10292	547.45343	525.24744	
1761	17.600	-242.07712	145.44286	-251.86967	148.89594	17.31428	-294.89688	-167.24284	10.55379	366.32944	192.24577	139.98076	332.66080	-67.80103	1222.28735	-578.20544	-141.96744	581.19415	-399.72110	16.89383	581.26929	-416.05786	-46.55662	554.04810	540.70111	107.11267	547.89929	525.20355	
1762	17.610	-242.55536	140.28999	-252.40662	149.20897	17.11186	-295.02274	-167.03600	10.52764	366.22925	190.78659	135.60014	333.61188	-67.78306	1221.56812	-579.38586	-142.44560	580.71368	-400.30350	16.89736	580.84906	-416.31393	-48.09117	554.53290	540.18158	106.73746	548.30579	525.03473	
1763	17.620	-242.47795	134.59189	-253.56894	149.45035	16.88840	-295.11957	-166.99767	10.55990	366.08765	189.10349	129.89175	333.89032	-67.98338	1221.06677	-580.12738	-142.38094	580.02783	-400.71054	17.36384	580.67395	-416.80197	-48.78461	554.62793	540.64923	106.20970	548.57123	524.80145	
1764	17.630	-243.06908	129.05115	-255.05180	149.79305	16.72264	-295.09790	-166.81761	10.69091	365.90875	186.92259	123.02616	333.93756	-67.93839	1220.68042	-581.00067	-142.43135	579.68884	-401.15283	17.86474	580.51587	-417.41333	-49.75290	555.08600	539.66272	104.92242	548.63678	523.58484	
1765	17.640	-244.04602	122.79183	-256.84210	150.22430	16.34373	-295.09448	-166.47336	10.99642	365.81598	184.82109	115.74702	333.01324	-68.24859	1220.18994	-582.02496	-142.23958	579.38525	-401.82285	17.14986	579.92590	-417.31400	-50.73301	555.56427	539.35858	104.29618	549.15430	523.70514	
1766	17.650	-245.80931	115.89735	-259.19708	150.79596	16.15136	-295.16122	-166.19012	11.52198	365.49347	182.75996	108.11636	331.78329	-68.44466	1219.77490	-583.13409	-142.59077	579.22064	-402.61978	17.50505	579.48975	-418.19949	-51.76266	556.02484	538.62866	102.17732	549.99170	523.75140	
1767	17.660	-247.71127	108.80509	-261.17484	151.15018	15.91523	-295.33234	-165.84222	11.50844	365.29514	180.91533	100.12768	330.43192	-68.86690	1218.98083	-584.37292	-142.44815	578.63232	-403.28043	17.59269	579.11890	-418.79327	-52.28270	556.05304	538.66382	101.81191	550.15100	523.27960	
1768	17.670	-249.08255	100.91292	-263.16315	151.45595	15.84718	-295.36215	-165.46182	11.50317	365.27216	179.21822	91.51728	329.34521	-68.93110	1218.12207	-585.50476	-142.16600	577.96454	-403.87271	17.58888	578.86011	-419.30713	-53.63045	556.34027	537.63403	101.48985	550.35522	523.13361	
1769	17.680	-250.57756	92.37329	-264.80090	151.90840	15.81680	-295.50650	-164.99823	11.55686	365.09573	177.04836	82.71799	328.34561	-69.22811	1217.22363	-587.00079	-141.96880	577.59009	-404.47580	16.81639	578.20557	-419.46939	-54.37653	556.58887	537.04407	100.18510	549.92468	521.73212	
1770	17.690	-251.83231	84.05545	-266.34186	152.28604	15.51367	-295.77884	-164.70105	11.62294	364.96194	175.53281	73.87743	327.31757	-68.84513	1216.27124	-588.41162	-142.46661	577.33740	-405.51987	17.08004	577.87384	-420.05399	-55.01759	556.75537	536.08105	99.41826	550.33264	521.15051	
1771	17.700	-253.18115	75.61758	-267.71185	154.29965	15.30393	-295.83417	-164.33078	11.92920	364.82825	171.53891	63.88287	326.19092	-68.68032	1215.35547	-590.13239	-142.49335	577.11475	-406.12640	17.11917	577.60486	-420.95416	-56.10343	556.90649	535.54230	98.82395	550.95050	521.53888	
1772	17.710	-254.51785	67.31133	-268.98364	153.21809	14.96644	-295.73486	-164.11165	12.17423	364.61017	170.02907	55.81109	324.85886	-68.16436	1214.55383	-591.64752	-142.78017	576.81512	-407.10458	17.04475	576.89783	-421.38474	-57.09473	557.17676	534.70154	97.51276	550.66394	520.08917	
1773	17.720	-255.54503	58.90332	-270.15878	154.56165	14.82880	-295.70599	-163.50354	12.13338	364.37170	168.67726	47.67369	323.62128	-67.90297	1213.63489	-593.28705	-142.42720	576.09290	-407.88550	17.08168	576.60077	-422.63242	-57.83844	557.40448	533.94861	96.77522	551.17267	519.93280	
1774	17.730	-256.41486	50.75790	-270.88022	154.68185	14.49561	-295.86548	-163.18655	12.21085	364.18939	167.66760	40.21975	322.50214	-67.64949	1212.99329	-594.83044	-142.69342	575.67523	-409.04877	17.12493	576.23584	-423.59595	-59.17022	557.44922	533.40234	94.93074	551.08704	518.42670	
1775	17.740	-257.18964	43.89300	-272.12372	154.97447	14.46566	-295.90405	-162.76941	12.26342	364.00269	166.58716	33.26730	321.23761	-66.97906	1212.10962	-596.32526	-142.93097	575.60925	-410.02856	16.70569	575.61224	-423.89078	-60.12116	557.60834	532.14801	94.80524	551.27423	518.45667	
1776	17.750	-258.30615	37.67481	-273.63535	155.24326	14.37480	-296.03198	-162.19186	12.47359	364.08115	165.62744	27.01584	319.87149	-66.57940	1211.84814	-597.92841	-143.17879	575.36938	-411.36017	16.38651	575.42242	-425.35214	-60.82598	557.95929	530.84338	93.97698	551.11169	516.81531	
1777	17.760	-259.27301	31.35774	-275.15393	155.51448	14.05647	-296.31458	-161.91968	12.89109	363.96442	164.96408	21.16343	318.29282	-66.26212	1211.06763	-599.72662	-143.23546	575.13049	-412.59027	16.79367	575.27472	-426.36163	-62.13795	558.04407	529.70038	92.69304	551.51263	516.63818	
1778	17.770	-260.02036	24.61650	-277.07224	156.07579	13.87060	-296.38760	-161.55887	12.96475	363.72021	165.86717	21.08290	315.62485	-66.12184	1210.68542	-601.42456	-143.41753	575.05603	-413.91928	16.26759	574.81500	-427.42346	-63.06894	558.40356	528.46478	91.40932	551.73822	515.35956	
1779	17.780	-260.93518	17.90685	-279.26010	156.81421	13.77282	-296.16266	-160.75652	13.12978	363.49667	166.31543	18.80867	316.09943	-65.55437	1210.16541	-603.14313	-143.36220	574.27429	-415.42239	16.22474	574.36340	-428.68423	-64.59122	559.32117	527.16510	90.28718	553.14246	514.24023	
1780	17.790	-261.61514	17.65013	-281.17374	157.14848	13.45230	-296.20032	-160.24255	13.47584	363.34714	167.70404	20.63378	316.08047	-65.62261	1209.96423	-605.26636	-143.15730	573.05402	-416.82257	16.75009	573.85120	-430.02896	-65.86257	561.06396	526.02777	88.78619	554.92957	513.17017	
